<mxfile host="app.diagrams.net" modified="2023-04-28T06:02:31.695Z" agent="Mozilla/5.0 (Windows NT 10.0; Win64; x64) AppleWebKit/537.36 (KHTML, like Gecko) Chrome/112.0.0.0 Safari/537.36 Edg/112.0.1722.58" etag="DiGVuPvCTVxCEgw30b_J" version="21.2.3" type="device">
  <diagram id="C5RBs43oDa-KdzZeNtuy" name="Page-1">
    <mxGraphModel dx="1923" dy="543" grid="1" gridSize="10" guides="1" tooltips="1" connect="1" arrows="1" fold="1" page="1" pageScale="1" pageWidth="827" pageHeight="1169" math="0" shadow="0">
      <root>
        <mxCell id="WIyWlLk6GJQsqaUBKTNV-0" />
        <mxCell id="WIyWlLk6GJQsqaUBKTNV-1" parent="WIyWlLk6GJQsqaUBKTNV-0" />
        <mxCell id="UBpug-JEpKhBNWv25o-5-50" style="edgeStyle=orthogonalEdgeStyle;rounded=0;orthogonalLoop=1;jettySize=auto;html=1;exitX=1;exitY=0.5;exitDx=0;exitDy=0;entryX=0;entryY=0.5;entryDx=0;entryDy=0;" edge="1" parent="WIyWlLk6GJQsqaUBKTNV-1" source="UBpug-JEpKhBNWv25o-5-42" target="UBpug-JEpKhBNWv25o-5-44">
          <mxGeometry relative="1" as="geometry">
            <Array as="points">
              <mxPoint x="110" y="554" />
              <mxPoint x="110" y="554" />
            </Array>
          </mxGeometry>
        </mxCell>
        <mxCell id="UBpug-JEpKhBNWv25o-5-51" value="1.When Button Pressed" style="edgeLabel;html=1;align=center;verticalAlign=middle;resizable=0;points=[];" vertex="1" connectable="0" parent="UBpug-JEpKhBNWv25o-5-50">
          <mxGeometry x="-0.2015" y="6" relative="1" as="geometry">
            <mxPoint as="offset" />
          </mxGeometry>
        </mxCell>
        <mxCell id="UBpug-JEpKhBNWv25o-5-42" value="Harvest&lt;br&gt;Button" style="rounded=1;whiteSpace=wrap;html=1;" vertex="1" parent="WIyWlLk6GJQsqaUBKTNV-1">
          <mxGeometry x="-110" y="530" width="120" height="60" as="geometry" />
        </mxCell>
        <mxCell id="UBpug-JEpKhBNWv25o-5-58" style="edgeStyle=orthogonalEdgeStyle;rounded=0;orthogonalLoop=1;jettySize=auto;html=1;exitX=1;exitY=0.5;exitDx=0;exitDy=0;entryX=0;entryY=0.75;entryDx=0;entryDy=0;" edge="1" parent="WIyWlLk6GJQsqaUBKTNV-1" source="UBpug-JEpKhBNWv25o-5-43" target="UBpug-JEpKhBNWv25o-5-44">
          <mxGeometry relative="1" as="geometry" />
        </mxCell>
        <mxCell id="UBpug-JEpKhBNWv25o-5-59" value="5. When Button Pressed" style="edgeLabel;html=1;align=center;verticalAlign=middle;resizable=0;points=[];" vertex="1" connectable="0" parent="UBpug-JEpKhBNWv25o-5-58">
          <mxGeometry x="-0.7632" y="4" relative="1" as="geometry">
            <mxPoint x="32" y="-6" as="offset" />
          </mxGeometry>
        </mxCell>
        <mxCell id="UBpug-JEpKhBNWv25o-5-43" value="Plant Seeds&lt;br&gt;Button" style="rounded=1;whiteSpace=wrap;html=1;" vertex="1" parent="WIyWlLk6GJQsqaUBKTNV-1">
          <mxGeometry x="-120" y="640" width="110" height="60" as="geometry" />
        </mxCell>
        <mxCell id="UBpug-JEpKhBNWv25o-5-52" style="edgeStyle=orthogonalEdgeStyle;rounded=0;orthogonalLoop=1;jettySize=auto;html=1;exitX=0.5;exitY=0;exitDx=0;exitDy=0;entryX=0.553;entryY=1.05;entryDx=0;entryDy=0;entryPerimeter=0;" edge="1" parent="WIyWlLk6GJQsqaUBKTNV-1" source="UBpug-JEpKhBNWv25o-5-44" target="UBpug-JEpKhBNWv25o-5-47">
          <mxGeometry relative="1" as="geometry" />
        </mxCell>
        <mxCell id="UBpug-JEpKhBNWv25o-5-53" value="2.Updates in Inventory" style="edgeLabel;html=1;align=center;verticalAlign=middle;resizable=0;points=[];" vertex="1" connectable="0" parent="UBpug-JEpKhBNWv25o-5-52">
          <mxGeometry x="-0.2628" relative="1" as="geometry">
            <mxPoint as="offset" />
          </mxGeometry>
        </mxCell>
        <mxCell id="UBpug-JEpKhBNWv25o-5-54" style="edgeStyle=orthogonalEdgeStyle;rounded=0;orthogonalLoop=1;jettySize=auto;html=1;exitX=1;exitY=0.5;exitDx=0;exitDy=0;entryX=0.5;entryY=0;entryDx=0;entryDy=0;" edge="1" parent="WIyWlLk6GJQsqaUBKTNV-1" source="UBpug-JEpKhBNWv25o-5-44" target="UBpug-JEpKhBNWv25o-5-46">
          <mxGeometry relative="1" as="geometry" />
        </mxCell>
        <mxCell id="UBpug-JEpKhBNWv25o-5-55" value="3. Drop Some Amount of seed and stores in Land Model" style="edgeLabel;html=1;align=center;verticalAlign=middle;resizable=0;points=[];" vertex="1" connectable="0" parent="UBpug-JEpKhBNWv25o-5-54">
          <mxGeometry x="0.0071" relative="1" as="geometry">
            <mxPoint as="offset" />
          </mxGeometry>
        </mxCell>
        <mxCell id="UBpug-JEpKhBNWv25o-5-56" style="edgeStyle=orthogonalEdgeStyle;rounded=0;orthogonalLoop=1;jettySize=auto;html=1;exitX=0;exitY=1;exitDx=0;exitDy=0;" edge="1" parent="WIyWlLk6GJQsqaUBKTNV-1" source="UBpug-JEpKhBNWv25o-5-44" target="UBpug-JEpKhBNWv25o-5-45">
          <mxGeometry relative="1" as="geometry" />
        </mxCell>
        <mxCell id="UBpug-JEpKhBNWv25o-5-57" value="4. Updates UI based on Values" style="edgeLabel;html=1;align=center;verticalAlign=middle;resizable=0;points=[];" vertex="1" connectable="0" parent="UBpug-JEpKhBNWv25o-5-56">
          <mxGeometry x="0.4039" relative="1" as="geometry">
            <mxPoint as="offset" />
          </mxGeometry>
        </mxCell>
        <mxCell id="UBpug-JEpKhBNWv25o-5-60" style="edgeStyle=orthogonalEdgeStyle;rounded=0;orthogonalLoop=1;jettySize=auto;html=1;exitX=0;exitY=0;exitDx=0;exitDy=0;entryX=0;entryY=0.5;entryDx=0;entryDy=0;" edge="1" parent="WIyWlLk6GJQsqaUBKTNV-1" source="UBpug-JEpKhBNWv25o-5-44" target="UBpug-JEpKhBNWv25o-5-47">
          <mxGeometry relative="1" as="geometry">
            <mxPoint x="130" y="350" as="targetPoint" />
            <Array as="points">
              <mxPoint x="130" y="530" />
              <mxPoint x="130" y="330" />
            </Array>
          </mxGeometry>
        </mxCell>
        <mxCell id="UBpug-JEpKhBNWv25o-5-61" value="6. Checks if Enough Resources&amp;nbsp;&lt;br&gt;are present" style="edgeLabel;html=1;align=center;verticalAlign=middle;resizable=0;points=[];" vertex="1" connectable="0" parent="UBpug-JEpKhBNWv25o-5-60">
          <mxGeometry x="0.1197" y="2" relative="1" as="geometry">
            <mxPoint as="offset" />
          </mxGeometry>
        </mxCell>
        <mxCell id="UBpug-JEpKhBNWv25o-5-44" value="LandController" style="rounded=1;whiteSpace=wrap;html=1;" vertex="1" parent="WIyWlLk6GJQsqaUBKTNV-1">
          <mxGeometry x="200" y="530" width="120" height="54" as="geometry" />
        </mxCell>
        <mxCell id="UBpug-JEpKhBNWv25o-5-45" value="LandView" style="rounded=1;whiteSpace=wrap;html=1;" vertex="1" parent="WIyWlLk6GJQsqaUBKTNV-1">
          <mxGeometry x="120" y="780" width="120" height="60" as="geometry" />
        </mxCell>
        <mxCell id="UBpug-JEpKhBNWv25o-5-46" value="Land" style="rounded=1;whiteSpace=wrap;html=1;" vertex="1" parent="WIyWlLk6GJQsqaUBKTNV-1">
          <mxGeometry x="320" y="780" width="120" height="60" as="geometry" />
        </mxCell>
        <mxCell id="UBpug-JEpKhBNWv25o-5-47" value="Inventory" style="rounded=1;whiteSpace=wrap;html=1;" vertex="1" parent="WIyWlLk6GJQsqaUBKTNV-1">
          <mxGeometry x="200" y="300" width="120" height="60" as="geometry" />
        </mxCell>
      </root>
    </mxGraphModel>
  </diagram>
</mxfile>
